<?xml version="1.0" standalone="no"?>
<!DOCTYPE svg PUBLIC "-//W3C//DTD SVG 20010904//EN"
 "http://www.w3.org/TR/2001/REC-SVG-20010904/DTD/svg10.dtd">
<svg version="1.0" xmlns="http://www.w3.org/2000/svg"
 width="318.000000pt" height="318.000000pt" viewBox="0 0 318.000000 318.000000"
 preserveAspectRatio="xMidYMid meet">
<metadata>
Created by potrace 1.14, written by Peter Selinger 2001-2017
</metadata>
<g transform="translate(0.000000,318.000000) scale(0.100000,-0.100000)"
fill="#000000" stroke="none">
<path d="M1431 3049 c-19 -4 -40 -5 -47 -2 -6 2 -15 -1 -19 -6 -3 -6 -9 -9
-13 -7 -4 2 -27 0 -52 -5 -25 -5 -58 -12 -75 -15 -16 -3 -37 -10 -46 -15 -9
-4 -27 -10 -40 -12 -37 -7 -157 -57 -228 -95 -61 -33 -122 -71 -208 -133 -61
-43 -201 -183 -259 -259 -62 -79 -145 -216 -137 -224 4 -3 2 -6 -4 -6 -11 0
-91 -193 -99 -238 -3 -14 -10 -34 -15 -44 -6 -11 -8 -22 -5 -25 3 -3 1 -14 -4
-24 -6 -9 -12 -37 -14 -61 -3 -24 -6 -43 -6 -43 -6 0 -13 -119 -13 -215 0
-109 5 -178 19 -245 3 -16 7 -39 9 -50 15 -110 113 -359 175 -446 11 -15 20
-32 20 -38 0 -6 5 -11 10 -11 6 0 10 -5 10 -11 0 -9 31 -52 90 -123 39 -47
152 -158 194 -191 21 -16 44 -34 50 -40 16 -13 47 -34 66 -42 8 -4 17 -9 20
-13 10 -13 132 -80 146 -80 7 0 14 -4 14 -9 0 -5 8 -11 18 -14 9 -3 61 -21
116 -41 54 -19 110 -37 125 -40 14 -2 33 -7 41 -10 45 -16 201 -30 330 -29 86
0 215 9 215 14 0 1 9 3 20 4 11 2 43 8 70 15 28 7 60 14 73 15 13 2 29 9 37
15 8 7 15 10 15 7 0 -6 107 36 203 80 31 15 57 30 57 35 0 4 5 8 11 8 16 0
143 85 169 112 11 12 20 18 20 14 0 -4 42 34 94 86 91 91 210 240 227 285 5
13 13 23 19 23 5 0 9 3 8 8 -1 4 15 41 35 82 51 106 73 167 98 262 27 105 28
112 35 178 3 30 7 66 10 80 6 34 5 175 -2 230 -3 25 -7 61 -9 80 -2 19 -6 46
-9 60 -4 14 -8 37 -11 52 -3 15 -9 37 -13 50 -5 13 -8 30 -7 38 0 8 -2 17 -5
20 -3 3 -13 30 -23 60 -17 52 -114 260 -126 270 -4 3 -19 25 -35 50 -65 101
-200 250 -226 250 -8 0 -23 -7 -34 -15 -27 -21 -15 -53 46 -116 29 -30 62 -68
73 -83 19 -27 44 -58 65 -83 5 -7 10 -15 10 -17 0 -3 18 -35 40 -71 22 -35 42
-76 46 -90 3 -14 10 -25 15 -25 5 0 8 -3 7 -7 -2 -5 7 -33 19 -63 18 -46 32
-88 49 -155 45 -175 50 -400 13 -586 -6 -30 -12 -65 -15 -79 -2 -14 -8 -34
-13 -45 -5 -11 -19 -49 -31 -85 -12 -36 -26 -69 -31 -74 -5 -6 -9 -18 -9 -28
0 -10 -4 -18 -10 -18 -5 0 -10 -6 -10 -13 0 -17 -108 -191 -121 -195 -5 -2 -9
-8 -9 -13 0 -35 -226 -247 -335 -315 -16 -10 -33 -23 -37 -29 -4 -5 -8 -6 -8
-2 0 5 -13 -1 -28 -12 -42 -30 -167 -85 -247 -108 -90 -27 -194 -53 -203 -51
-4 1 -29 -2 -57 -7 -57 -9 -275 -13 -280 -4 -2 3 -23 6 -47 8 -45 2 -57 4 -98
14 -14 4 -36 9 -50 11 -14 2 -47 12 -75 21 -27 10 -54 18 -60 20 -63 13 -285
134 -352 191 -12 11 -34 28 -49 39 -63 45 -191 184 -246 269 -15 22 -31 46
-36 51 -17 21 -65 113 -97 187 -69 155 -106 338 -107 523 -1 76 9 202 17 235
3 8 7 33 11 55 3 22 10 45 15 51 5 6 7 13 4 15 -7 7 47 153 86 234 95 197 243
375 425 507 28 21 54 35 58 31 3 -3 6 -2 6 4 0 12 108 76 128 76 6 0 12 3 12
7 0 4 30 18 68 32 73 28 107 40 107 38 0 -1 14 4 30 10 40 16 74 23 108 24 15
1 27 4 27 7 0 3 6 6 13 7 6 0 53 4 102 9 149 13 294 5 407 -23 93 -22 93 -22
93 -24 0 -1 7 -3 16 -5 75 -14 219 -125 219 -168 0 -7 5 -18 10 -23 6 -6 12
-28 14 -50 2 -21 6 -43 7 -49 2 -5 -1 -35 -6 -65 -8 -52 -9 -60 -15 -77 -1 -5
-2 -11 -1 -15 0 -5 -3 -8 -7 -8 -4 0 -13 -15 -20 -33 -7 -19 -32 -62 -57 -98
-39 -55 -42 -65 -27 -71 9 -4 13 -7 8 -7 -4 -1 2 -10 15 -21 24 -19 24 -19 40
0 9 10 18 17 20 15 13 -13 121 204 134 270 9 48 7 172 -3 192 -5 10 -8 26 -7
36 2 9 0 17 -5 17 -4 0 -15 17 -23 38 -43 106 -242 219 -437 247 -25 4 -56 9
-70 11 -46 8 -295 10 -329 3z"/>
<path d="M1630 2375 c-58 -18 -93 -38 -123 -70 -43 -47 -51 -57 -72 -100 -11
-22 -24 -43 -28 -46 -5 -3 -8 -9 -8 -13 0 -6 -4 -20 -19 -66 -29 -83 -30 -247
-2 -320 18 -48 56 -125 67 -136 5 -6 21 -24 35 -41 l24 -31 18 20 c10 12 18
25 18 30 0 5 5 6 10 3 6 -3 10 -3 10 2 0 4 13 22 28 40 15 17 43 51 62 74 19
23 41 48 49 56 8 9 11 23 6 41 -21 81 -19 84 64 183 71 84 113 110 160 97 33
-9 36 -8 88 49 29 32 52 64 50 72 -6 38 -212 149 -286 154 -17 1 -31 5 -31 8
0 10 -83 5 -120 -6z"/>
<path d="M2067 2171 c-9 -14 -30 -41 -47 -60 -30 -33 -31 -37 -20 -70 14 -44
7 -87 -18 -115 -11 -12 -28 -31 -38 -44 -56 -69 -92 -101 -126 -110 -23 -6
-40 -7 -44 -1 -16 26 -53 -1 -130 -97 -18 -21 -44 -52 -58 -67 -15 -16 -33
-39 -42 -52 -14 -22 -13 -24 33 -51 26 -15 53 -29 58 -31 6 -1 31 -9 58 -17
26 -8 47 -12 47 -9 0 3 6 1 13 -3 26 -19 233 4 265 29 6 5 12 6 12 3 0 -4 14
2 30 14 17 12 30 19 30 15 0 -10 92 56 142 102 26 23 44 43 41 43 -3 0 1 8 10
18 10 10 14 22 10 25 -3 4 -1 7 5 7 7 0 11 3 11 8 -1 4 0 9 1 12 11 29 14 113
5 160 -9 44 -59 150 -85 178 -11 12 -20 24 -20 27 0 4 -13 20 -30 37 -16 16
-30 34 -30 39 0 5 -7 9 -15 9 -8 0 -15 4 -15 9 0 5 -8 11 -19 14 -12 3 -23 -4
-34 -22z"/>
<path d="M1335 2077 c-5 -7 -19 -29 -30 -51 -11 -21 -26 -40 -32 -43 -7 -3
-11 -9 -8 -13 3 -4 -27 -40 -65 -79 -39 -39 -70 -68 -70 -63 0 4 -7 -2 -15
-12 -8 -11 -15 -17 -15 -13 0 8 -57 -32 -108 -75 -18 -15 -32 -29 -32 -32 0
-3 -13 -19 -29 -36 -52 -58 -100 -173 -105 -252 -1 -20 -5 -40 -9 -44 -3 -4
-2 -15 4 -25 7 -13 6 -19 -1 -19 -6 0 -9 -3 -6 -8 2 -4 7 -26 10 -48 9 -60 20
-93 52 -159 26 -53 111 -151 171 -197 21 -16 105 -56 133 -64 66 -17 90 -21
94 -17 2 3 10 1 18 -3 40 -25 206 10 302 63 50 27 145 105 146 118 0 6 9 17
19 25 11 7 18 17 15 22 -3 4 2 11 10 14 9 3 16 15 16 25 0 10 5 19 10 19 6 0
10 6 10 13 0 21 60 130 95 172 68 81 91 105 101 105 5 0 16 9 24 19 7 11 18
17 23 14 6 -3 7 -1 4 4 -4 6 0 13 8 17 8 3 15 10 15 16 0 6 -12 3 -27 -7 -14
-9 -31 -18 -37 -20 -18 -3 -54 -13 -78 -19 -36 -11 -219 -8 -259 3 -64 18
-143 61 -189 102 -25 22 -48 41 -52 41 -5 0 -8 6 -8 14 0 7 -6 19 -13 25 -8 6
-24 32 -36 58 -13 27 -27 56 -32 66 -6 10 -7 22 -4 27 4 6 2 10 -2 10 -13 0
-17 43 -16 160 0 107 2 125 16 148 10 15 -5 15 -18 -1z"/>
<path d="M1877 2065 c-32 -16 -67 -52 -59 -59 3 -3 -2 -6 -11 -6 -9 0 -17 -7
-17 -15 0 -8 -4 -15 -8 -15 -5 0 -20 -16 -35 -36 -18 -26 -24 -46 -22 -71 4
-43 13 -52 60 -63 35 -8 39 -6 84 38 84 85 111 125 108 166 -5 54 -54 85 -100
61z"/>
<path d="M3121 1461 c-8 -14 -7 -22 4 -31 13 -11 15 -8 15 19 0 36 -5 39 -19
12z"/>
<path d="M3115 752 c-16 -12 -11 -45 8 -48 13 -2 17 5 17 27 0 29 -7 35 -25
21z"/>
</g>
</svg>
