<svg width="441" height="371" viewBox="0 0 441 371" fill="none" xmlns="http://www.w3.org/2000/svg">
<path d="M199.122 284.904C199.122 261.621 193.036 242.094 180.865 226.246C172.24 215.345 160.545 208.175 145.755 204.762C131.203 201.375 117.445 201.137 105.009 204.021C100.776 178.885 107.655 152.268 125.118 124.064C142.58 95.8856 165.202 74.666 192.798 60.4843L150.967 0.291626C129.801 10.7691 109.692 24.0512 91.1717 40.1114C72.3862 56.1716 55.7175 74.6395 40.9008 95.5152C26.0842 116.391 14.9717 139.965 7.8279 166.688C0.68415 193.411 -1.30022 220.663 2.1129 248.709C6.5579 285.751 18.5171 315.384 37.9904 337.344C57.4373 359.596 81.6996 370.708 110.698 370.708C136.23 370.708 157.423 363.035 174.198 347.478C190.814 332.238 199.069 311.362 199.069 284.825L199.122 284.904ZM440.528 284.904C440.528 261.621 434.442 242.094 422.271 226.246C413.646 215.133 401.898 207.937 387.161 204.629C372.344 201.348 358.771 201.19 346.415 204.047C342.182 179.176 348.796 152.453 366.312 124.143C383.774 96.0972 406.343 74.9306 433.939 60.6431L392.215 0.291626C371.048 10.7691 351.072 24.0512 332.419 40.1114C313.462 56.4096 296.626 75.023 282.307 95.5152C267.596 116.417 256.642 139.965 249.498 166.688C242.27 193.395 240.32 221.255 243.757 248.709C248.149 285.751 260.055 315.384 279.476 337.344C298.87 359.411 323.053 370.47 352.051 370.47C377.636 370.47 398.829 362.797 415.604 347.266C432.193 332.026 440.528 311.151 440.528 284.613V284.904Z" fill="#A6C1FF"/>
</svg>
